<?xml version="1.0" encoding="UTF-8" standalone="no"?>
<svg
   height="12.359833"
   width="12.848009"
   version="1.0"
   id="svg23"
   xmlns="http://www.w3.org/2000/svg"
   xmlns:svg="http://www.w3.org/2000/svg">
  <defs
     id="defs23" />
  <g
     transform="translate(-13.8186,-573.66434)"
     id="g23">
    <g
       transform="matrix(0.02624193,0,0,0.02549699,13.799387,573.4394)"
       id="g22">
      <path
         d="m 150.553,492.42 c -7.84496,-0.80541 -19.0012,-2.76407 -25.5,-4.47692 -6.35435,-1.67479 -15.6161,-3.89149 -20.5816,-4.92599 -8.2314,-1.715 -10.8026,-2.91 -29.1584,-13.558 -19.7236,-11.441 -20.3718,-11.923 -32.0411,-23.818 l -11.9102,-12.141 -4.31,-15.748 c -4.5492,-16.622 -4.501,-15.958 -2.3933,-32.932 l 0.581111,-4.67993 -8.86954,-4.45879 -8.8696,-4.458 -3.3841,-9.658 -3.3841,-9.658 2.1922,-19.704 c 2.35885,-21.201 1.69237,-18.865 13.175,-46.167 3.6535,-8.686 5.505,-11.642 10.901,-17.399 3.575,-3.81422 7.96361,-7.54949 9.75247,-8.30062 4.99595,-2.09777 30.5062,-4.62846 40.4464,-4.01241 l 8.69888,0.53912 1.5638,-5.68175 c 4.3425,-15.777 13.221399,-33.611 29.506399,-59.27 l 6.77399,-10.6727 -3.17015,-4.00611 c -1.74358,-2.20336 -4.0092,-6.47456 -5.0347,-9.49155 -3.34395,-9.83772 0.37313,-20.8309 9.06566,-26.8115 2.4323,-1.67346 6.10419,-3.62569 8.15976,-4.33828 l 3.7374,-1.29561 v -9.39768 c 0,-6.94681 0.4384,-10.18 1.68101,-12.3977 0.92456,-1.65 2.33681,-4.3972 3.13834,-6.10488 0.80153,-1.70769 3.2686,-4.40685 5.48237,-5.99814 2.42906,-1.74604 5.01242,-4.90648 6.5152,-7.97059 2.00338,-4.08482 4.91188,-7.04435 14.8788,-15.1398 25.3636,-20.6012 40.3211,-27.5802 66.8647,-31.1981 l 12.5604,-1.71197 18.9396,3.7142 c 25.2778,4.95717 48.5713,13.7374 64.4047,24.2767 5.75579,3.83125 10.9308,6.95474 11.5,6.94108 0.5692,-0.01366 5.30992,-1.95415 10.5349,-4.31219 11.5411,-5.2085 32.4377,-17.3312 52.5499,-30.4857 18.6586,-12.2037 39.8662,-22.8178 62.1486,-31.1044 18.3263,-6.81533 21.3554,-7.1323 22.602,-2.36517 0.37595,1.43763 -2.80625,10.8626 -9.22645,27.3267 -5.391,13.8225 -10.631,27.382 -11.646,30.132 -1.01446,2.75 -10.0552,20.975 -20.0905,40.5 -16.2155,31.5493 -19.0278,37.7628 -25.2711,55.8331 l -7.02509,20.3331 -1.04842,22.6669 c -1.08842,23.5317 -2.04277,30.9705 -4.40623,34.3448 -1.23407,1.76189 -0.89417,3.47371 2.98805,15.0485 5.0391,15.0241 5.95502,24.9988 2.97414,32.3897 -1.59586,3.95676 -1.55635,4.65371 1.02016,18 2.62894,13.6179 2.66914,14.4216 2.09835,41.9548 -0.32006,15.439 -1.01841,29.2189 -1.55188,30.6221 -0.53347,1.40313 -7.41547,12.5801 -15.2933,24.8377 -10.4182,16.2103 -15.414,23.0727 -18.3234,25.1698 -2.2,1.58577 -12.7011,11.0769 -23.3358,21.0913 -10.6347,10.0145 -20.3097,18.7208 -21.5,19.3473 -1.19028,0.62651 -12.0642,4.07681 -24.1642,7.66733 l -22,6.52821 -8.71942,-1.21975 c -7.73734,-1.08237 -10.891,-0.96226 -28,1.06637 -29.5024,3.49812 -72.1296,7.52383 -83.2806,7.86498 -5.5,0.16827 -16.276,-0.33838 -23.9466,-1.1259 z"
         id="path8" />
      <g
         id="g21">
        <path
           d="m 182,480.33 c -1.925,-0.18336 -12.275,-0.75636 -23,-1.27333 -18.6378,-0.89839 -20.3843,-1.16485 -39.5,-6.02656 l -20,-5.08661 -13.9322,-9.22196 c -7.6627,-5.071 -14.7829,-10.121 -15.8226,-11.221 -3.734,-3.95 -11.7228,-18.303 -14.735,-26.472 -2.86732,-7.77661 -3.05244,-9.09564 -2.79061,-19.8849 0.27353,-11.2714 0.339465,-11.5697 2.67953,-12.1205 2.38845,-0.56219 2.384,-0.57691 -1,-3.31213 -1.86951,-1.51108 -10.26,-7.2951 -18.6456,-12.8534 -10.6673,-7.071 -16.2472,-11.457 -18.5785,-14.605 l -3.33193,-4.49824 1.82631,-10.6271 c 1.0045,-5.845 2.0969,-14.452 2.4276,-19.127 0.572292,-8.09017 1.03377,-9.41704 9.57122,-27.5199 l 8.96994,-19.0199 6.12214,-3.98011 c 12.1218,-7.881 15.3912,-8.762 31.7397,-8.553 28.4566,0.36316 31.2276,0.93456 76.3286,15.7398 10.9058,3.58002 20.0155,6.32225 20.2439,6.09384 1.72764,-1.72764 -58.1144,-20.6543 -70.7441,-22.3748 -4.29019,-0.58441 -4.5982,-0.80981 -3.77317,-2.76119 0.494099,-1.16866 2.05325,-6.33218 3.46478,-11.4745 1.51564,-5.52159 5.41475,-15.0355 9.52317,-23.2367 5.96116,-11.8996 6.95755,-14.6402 6.96232,-19.1503 0.005,-4.81128 0.60178,-6.18464 6.94724,-15.9903 l 6.94166,-10.727 -3.93623,-4.97969 c -3.45472,-4.37055 -4.01534,-5.83103 -4.58305,-11.9393 l -0.64682,-6.9596 5.06055,-5.33375 c 4.89089,-5.15491 9.58842,-8.18494 17.4696,-11.2683 l 3.7585,-1.47046 -0.13135,-8.29747 c -0.24721,-15.6171 0.31966,-17.2666 8.97156,-26.1053 5.99857,-6.12807 9.86036,-9.00198 17.9507,-13.3588 5.66935,-3.05304 10.0987,-5.76022 9.84293,-6.01595 -0.25573,-0.255734 -1.74429,0.188484 -3.3079,0.987152 -2.357,1.2035 -11.836,3.6948 -14.06,3.6948 -1.99132,0 22.6151,-17.4555 31.5493,-22.3806 12.122,-6.6825 13.306,-7.10066 25.6673,-9.06511 18.3151,-2.91061 33.2535,-3.94268 37.7917,-2.61099 12.5805,3.69162 53.0351,22.1092 58.2083,26.5003 l 3,2.54644 -2.78518,0.005 c -2.47332,0.0044 -2.66553,0.228551 -1.71657,2.0017 1.473,2.7517 8.198,6.0033 12.417,6.0033 5.61543,0 31.6079,-12.2787 35.1725,-16.6153 0.5983,-0.727882 7.13847,-4.86748 14.5337,-9.1991 7.39523,-4.33162 20.1807,-12.2806 28.4122,-17.6644 18.2259,-11.9208 39.6718,-22.7229 60.8474,-30.6484 8.73462,-3.26915 16.0408,-5.78427 16.2359,-5.58916 0.19511,0.195105 -2.82933,8.42359 -6.72097,18.2855 -3.892,9.862 -9.022,23.1059 -11.402,29.4309 -2.37944,6.325 -12.4437,27.25 -22.3649,46.499998 -16.4333,31.8851 -18.7079,36.9398 -25.5579,56.796 l -7.51918,21.796 -1.03535,22.204 c -1.20705,25.8862 -1.57868,28.8473 -4.17212,33.2428 l -1.93611,3.28147 3.58532,10.3003 c 2.86911,8.24275 3.60962,11.9063 3.70699,18.3399 0.2089,13.8026 -0.79977,17.7295 -5.81947,22.656 l -1.61384,4.09102 1.72572,8.64627 c 1.36177,6.82281 1.69379,13.3678 1.57431,31.0344 l -0.15141,22.3881 -5.90342,10.6119 c -3.319,5.96616 -8.81862,18.4919 -12.5624,28.6118 l -6.65901,18 -20.1456,20.3431 c -14.4536,14.5953 -21.4171,20.9133 -24.6456,22.3614 -2.475,1.11007 -11.1851,4.21819 -19.3559,6.90692 -11.3037,3.7197 -16.3323,4.88861 -21.0305,4.88861 -8.77922,0 -45.1013,-3.84933 -48.3738,-5.12654 -5.10371,-1.99192 -31.6464,-9.80025 -32.0254,-9.42124 -0.20707,0.20707 0.0865,1.24156 0.65234,2.29888 0.59264,1.10736 4.65236,3.32327 9.57557,5.22662 8.7736,3.39193 11.9878,5.59456 9.42026,6.45557 -15.2371,5.10969 -40.4073,8.274 -54.8626,6.89713 z m -2.74448,-39.0723 c -8.38446,-4.1814 -15.5082,-7.33885 -15.8304,-7.01656 -0.93972,0.93972 16.4547,10.7924 22.5297,12.7614 10.2969,3.33743 8.60768,1.88887 -6.69925,-5.74482 z m 147.144,-80.8965 c 6.40808,-1.40807 8.03258,-2.22585 11.5587,-5.8187 3.95006,-4.02482 4.14058,-4.51937 5.11974,-13.2895 0.65592,-5.87488 0.67719,-10.2887 0.0599,-12.4313 -0.81177,-2.8177 -0.9708,-2.0747 -1.04729,4.89311 -0.0804,7.32737 -0.41443,8.72654 -3.09019,12.9458 l -3,4.73051 v -16.23 c 0,-11.478 -0.61229,-20.1988 -2.09117,-29.7848 -1.875,-12.1536 -5.64876,-26.5042 -5.83576,-22.1918 -0.0402,0.9267 0.40059,2.93073 0.97951,4.45341 2.61727,6.88392 4.92641,28.1598 4.93683,45.4867 0.0148,24.585 0.56114,23.0928 -9.32779,25.4744 -7.51801,1.81061 -8.97782,1.86259 -18.5118,0.65923 -10.1285,-1.27839 -10.6641,-1.47983 -25,-9.40141 -15.032,-8.306 -24.151,-14.326 -24.151,-15.943 0,-0.50316 -0.3375,-0.80337 -0.75,-0.66713 -1.25978,0.41606 -9.20587,-5.65994 -9.22865,-7.05672 -0.0117,-0.71996 -0.4086,-1.06968 -0.88191,-0.77716 -0.47331,0.29253 -4.1524,-1.93092 -8.17574,-4.94098 -4.024,-3.01 -7.776,-5.473 -8.34,-5.473 -1.37103,0 -1.57975,-0.19052 16.8757,15.404 11.8085,9.97792 18.4887,14.8164 25.5,18.4695 14.2872,7.44407 21.669,10.2576 30.5,11.6251 11.307,1.75089 15.4149,1.72735 23.8991,-0.13693 z m 74.6,-79.815 c 0,-0.24912 -0.52223,-1.59912 -1.16052,-3 -1.07026,-2.34896 -2.07597,-2.99475 -4.12999,-2.65197 -2.4154,0.4031 -4.5295,-2.20915 -5.15305,-6.36726 -0.373,-2.49 -1.131,-4.528 -1.685,-4.528 -0.59057,0 -0.70801,0.92929 -0.28434,2.25 1.27541,3.97584 2.31417,9.18216 1.91223,9.58411 -1.06174,1.06173 -13.6142,-9.17827 -18.8031,-15.3392 -6.94507,-8.24597 -9.98727,-13.8825 -11.7352,-21.7428 -1.15584,-5.19763 -1.09766,-6.08306 0.60785,-9.25 1.03733,-1.9262 2.61397,-3.50218 3.50366,-3.50218 2.32471,0 5.0912,-3.41004 4.3447,-5.35538 -0.86868,-2.26375 -1.96307,-2.0768 -6.23384,1.06493 -2.0258,1.49025 -3.80357,2.77304 -3.95059,2.85064 -0.14701,0.0776 -0.61468,2.7958 -1.03925,6.04045 -0.94126,7.19316 0.31344,12.0149 5.37341,20.6496 7.37885,12.5919 15.638,21.0344 25.8105,26.3837 5.18659,2.72739 12.6226,4.4435 12.6226,2.91308 z m -55.554,-64.2906 c 5.95637,-5.24301 12.202,-8.28881 18.8592,-9.19702 l 5.19474,-0.70869 -4.89674,-0.8109 c -4.3396,-0.71864 -5.52153,-0.48259 -10.3882,2.07465 -7.00444,3.68059 -16.9216,13.6701 -18.2236,18.3566 -1.78281,6.4173 -1.03028,6.61417 1.86765,0.48858 1.77714,-3.7565 4.64574,-7.61435 7.58686,-10.2032 z m -266.446,245.731 c -3.025,-1.65675 -8.62403,-4.63088 -12.4423,-6.60919 -4.62863,-2.39817 -10.5299,-6.96349 -17.707,-13.6985 -9.43144,-8.85046 -11.0408,-10.8495 -12.9944,-16.1406 -1.22634,-3.32145 -2.56002,-6.26852 -2.96374,-6.54903 -0.403715,-0.28051 -1.04824,-1.85551 -1.43228,-3.5 -0.384039,-1.64449 -1.36006,-4.04822 -2.16894,-5.34163 -0.98,-1.56703 -1.30836,-3.90256 -0.984166,-7 0.449686,-4.29639 4.53872,-22.1944 5.25551,-23.0038 0.173112,-0.19547 3.09573,0.70453 6.4947,2 8.13938,3.10221 8.65311,4.30463 7.1217,16.6689 -1.17429,9.48096 -1.13742,9.90388 1.73728,19.928 2.35157,8.19998 4.3484,12.4858 10.0172,21.5 6.80533,10.8214 7.44876,11.508 16.5733,17.6858 8.36452,5.66327 10.2073,7.07328 9.24307,7.0724 -0.1375,-1.2e-4 -2.725,-1.35574 -5.75,-3.01248 z"
           fill="#323e32"
           id="path9" />
        <path
           d="m 61.0268,421.762 c -3.8033,-1.916 -6.9938,-4.293 -7.7353,-5.762 -1.44812,-2.86861 -1.82058,-26 -0.418642,-26 0.480085,0 2.84258,0.87035 5.25,1.93411 2.40742,1.06376 10.3233,3.50182 17.5909,5.41793 19.8599,5.23607 19.5421,4.38517 6.26458,16.7751 -6.11376,5.70506 -11.8725,10.4909 -12.7971,10.6353 -0.924671,0.14436 -4.59417,-1.20564 -8.15444,-3 z m -31.524,-16.7459 c -0.743527,-4.4009 2.26,-22.0184 3.43083,-20.124 0.331904,0.53703 3.2715,2.78722 6.53244,5.00042 4.31937,2.93157 6.26908,3.74174 7.18176,2.98428 0.972049,-0.80672 1.15874,-0.29323 0.833087,2.29149 -0.230835,1.83216 -0.686046,5.4687 -1.01158,8.0812 -0.571597,4.58722 -0.704938,4.75 -3.89104,4.75 -1.81454,0 -5.3382,0.27948 -7.83037,0.62107 l -4.53122,0.62108 -0.713907,-4.22558 z m 102.08,-30.544 c -6.00425,-2.93937 -12.3042,-6.78377 -14,-8.54311 l -3.08318,-3.19881 4.5,2.95578 c 2.475,1.62568 9.225,4.58061 15,6.56653 8.74793,3.00824 11.5012,3.53828 16.5,3.17643 l 6,-0.43432 -5,1.85634 c -2.75,1.02099 -5.9,2.1059 -7,2.41091 -1.25657,0.34842 -6.05793,-1.43199 -12.9168,-4.78975 z m 177.917,-11.95 -4,-1.3781 6.12133,0.5573 c 4.01811,0.36581 8.82834,-0.0346 14,-1.16535 6.74094,-1.47388 8.49126,-2.3157 12.1208,-5.82951 3.47426,-3.36347 4.35871,-4.98557 4.88609,-8.96113 0.52723,-3.97445 0.93645,-4.72531 2.25785,-4.14281 0.88764,0.39129 3.5264,1.19325 5.8639,1.78212 5.86881,1.4785 5.49476,3.54124 -1.63734,9.02927 -3.23804,2.49162 -6.99244,5.84353 -8.3431,7.44871 -2.41237,2.86694 -2.67492,2.92838 -14.8627,3.47805 -9.17416,0.41376 -13.4491,0.20048 -16.4069,-0.81855 z m -295.142,-7.564 c -0.722917,-0.72291 -0.478493,-4.32249 0.797865,-11.75 1.01203,-5.88929 2.11313,-14.5328 2.44689,-19.2078 0.565976,-7.92765 1.11867,-9.59155 8.20806,-24.7107 4.18067,-8.9159 7.75041,-16.0616 7.93274,-15.8792 0.182332,0.18233 -0.199169,1.49623 -0.847779,2.91977 -0.951428,2.08816 -0.889533,3.03092 0.320333,4.87923 0.824793,1.26003 1.82505,5.3341 2.22279,9.05349 l 0.723163,6.76253 8.90937,7.73747 c 4.90015,4.25561 8.91373,8.26247 8.91906,8.90414 0.0053,0.64166 0.442106,1.31666 0.970609,1.5 0.528503,0.18333 7.96509,5.73333 16.5257,12.3333 8.56066,6.6 17.0157,12.5689 18.7891,13.2642 2.14218,0.83989 2.38524,1.08656 0.724254,0.73501 -1.375,-0.29102 -10.6136,-1.2873 -20.5302,-2.21395 l -18.0302,-1.68482 -15.0755,4.19981 c -15.2514,4.24881 -21.1109,5.05302 -23.0064,3.15761 z m 220.494,-12.732 c -0.19371,-0.48799 -4.40219,-3.60303 -9.35219,-6.92231 -6.95652,-4.66478 -11.9686,-9.30106 -22.0745,-20.4193 l -13.074,-14.384 -23.925,-9.75 c -15.6625,-6.3825 -32.2142,-12.2086 -47.9255,-16.8696 -13.2,-3.91592 -24.225,-7.35387 -24.5,-7.63989 -0.275,-0.28602 2.57441,-0.24571 6.33202,0.0896 7.47418,0.66692 16.312,3.25278 57.668,16.8731 34.6897,11.4248 39.5576,13.3623 51.0986,20.3376 9.73311,5.88262 12.9608,8.99712 26.4655,25.5374 6.97019,8.53693 7.40331,9.33888 6.10571,11.3051 -1.4261,2.16096 -6.18109,3.44584 -6.81762,1.84224 z m 108.728,-5.726 c 0.30721,-2.21192 -0.13857,-6.90564 -0.99722,-10.5 -0.8775,-3.67323 -1.50417,-10.414 -1.441,-15.5 l 0.11177,-9 1.3398,10 c 0.73689,5.5 1.831,12.7 2.43135,16 0.90226,4.95954 0.82347,6.60694 -0.45435,9.5 l -1.54591,3.5 z m 1.73301,-44.292 c -3.37245,-10.8246 -5.47665,-18.7871 -4.67602,-17.6945 2.32231,3.16923 12.2582,35.9252 11.214,36.9694 -0.22342,0.22342 -3.16549,-8.45027 -6.53793,-19.2749 z m -189.313,-12.783 c -3.025,-0.65607 -15.85,-4.16674 -28.5,-7.8015 -12.65,-3.63476 -25.1035,-6.89049 -27.6744,-7.23496 -4.29924,-0.57603 -4.60209,-0.79736 -3.77317,-2.7575 0.495693,-1.17215 2.06116,-6.35635 3.47881,-11.5204 1.41765,-5.16408 3.91545,-11.9141 5.55068,-15 1.63522,-3.08592 2.74335,-4.71076 2.46251,-3.61076 -2.7764,10.8746 -3.20476,19.0326 -1.04292,19.8622 0.82582,0.31689 2.28152,2.21192 3.23489,4.21116 1.30721,2.74123 3.21239,4.38195 7.74852,6.6729 8.32023,4.20211 39.627,13.8379 47.4824,14.6144 l 6.46733,0.63931 -4.96733,1.55899 c -4.14888,1.30212 -5.87357,1.36245 -10.4673,0.36616 z m -73.25,-14.148 c 1.7875,-0.22182 4.7125,-0.22182 6.5,0 1.7875,0.22183 0.325,0.40333 -3.25,0.40333 -3.575,0 -5.0375,-0.1815 -3.25,-0.40333 z m 287.25,-34.837 -5.31434,-3.28348 6.52906,1.07867 c 5.02706,0.23251 5.76275,-1.40144 6.11382,-3.16078 0.2195,-1.1 0.46038,1.3376 0.53528,3.6751 0.16399,5.11783 -1.11601,5.39299 -7.86382,1.69049 z m -151.097,-5.69 c 1.00741,-2.3375 2.8252,-6.35395 4.03955,-8.92545 2.56008,-5.4212 2.55456,-5.4378 -4.92485,-14.8246 -7.35548,-9.23122 -12.2553,-11.521 -26.5174,-12.3922 -6.05,-0.36953 -14.0586,-0.94906 -17.797,-1.28783 l -6.79695,-0.61594 0.65231,-3.10203 c 0.35877,-1.70612 1.03329,-3.50793 1.49893,-4.00401 1.05055,-1.11924 15.9692,-0.90631 22.5426,0.32174 3.90361,0.72928 7.03266,0.43094 15.7858,-1.5051 6.005,-1.328 12.851,-2.415 15.213,-2.415 4.84947,0 16.6891,-5.25173 22.3188,-9.89996 l 3.41726,-2.82153 -2.34968,-3.29981 -2.34967,-3.29981 7.04732,0.65498 c 4.8995,0.45536 8.23138,0.239 10.9324,-0.70991 3.482,-1.22327 4.27252,-1.16956 7.6191,0.51774 2.52406,1.27259 3.9298,2.76977 4.33827,4.62046 0.33235,1.50581 1.49082,5.51902 2.57437,8.91824 2.65041,8.31462 1.84121,11.8452 -4.69118,20.4676 -5.89525,7.78146 -15.4649,15.0154 -26.9555,20.3763 -3.85,1.79622 -11.275,6.45743 -16.5,10.3582 -5.225,3.90081 -9.82151,7.09802 -10.2145,7.1049 -0.39296,0.007 0.10977,-1.89998 1.11717,-4.23748 z m 158.826,-23.354 c -0.401,-0.401 -0.729,-1.714 -0.729,-2.917 0,-1.20302 -1.12553,-3.40178 -2.50118,-4.88613 -2.27148,-2.45097 -3.09426,-2.67961 -8.95923,-2.48975 -3.9686,0.12848 -7.03511,-0.26983 -7.95502,-1.03329 -0.82333,-0.6833 -1.96667,-0.95207 -2.54077,-0.59726 -0.57409,0.35481 -1.0438,0.17366 -1.0438,-0.40255 0,-0.64361 2.40224,-0.95562 6.22889,-0.80901 4.38335,0.16793 6.27218,-0.13173 6.375,-1.01137 0.2963,-2.53486 0.4428,-2.72472 1.19243,-1.54532 0.58854,0.92596 1.99553,0.84417 6.08118,-0.35351 3.35855,-0.98452 5.66537,-1.2083 6.26584,-0.60783 0.59938,0.59938 2.71664,0.60112 5.733,0.005 l 4.78264,-0.94564 10.1208,-16.6802 c 5.56644,-9.1741 10.6342,-18.7083 12.1327,-20.0673 l 3.43701,-1.55489 -3.03894,4.5 c -1.67142,2.475 -6.77412,11.5274 -11.3393,20.1165 l -8.30039,15.6165 -6.28806,3.10079 c -5.75056,2.83572 -6.3822,3.46687 -7.38928,7.38347 -0.60567,2.35547 -1.19885,4.6483 -1.31818,5.09518 -0.11933,0.44688 -0.54509,0.48438 -0.94613,0.0833 z m -10.6502,-18.8125 c -0.0434,-1.05416 0.19293,-1.64479 0.52522,-1.3125 0.33229,0.3323 0.36781,1.19479 0.0789,1.91667 -0.31922,0.79773 -0.55618,0.56078 -0.60416,-0.60417 z m -240.791,-7.90347 c -2.90292,-3.43866 -4.40715,-6.29105 -4.84007,-9.17799 -1.07151,-7.14535 -0.41357,-8.89973 3.57955,-9.54483 3.56916,-0.57661 10.6621,0.68659 9.63315,1.71559 -0.30724,0.30723 -1.87541,0.0996 -3.48481,-0.46147 -2.08771,-0.72778 -3.60671,-0.68231 -5.30105,0.15868 -1.98622,0.98586 -2.42508,2.05613 -2.68182,6.54028 -0.26934,4.70425 0.0294,5.71263 2.43709,8.2257 1.50923,1.5753 3.2862,2.86418 3.94882,2.86418 0.66261,0 3.50342,-2.0667 6.31291,-4.59267 2.80948,-2.52597 5.10815,-4.11663 5.10815,-3.5348 0,0.58183 1.39662,2.64854 3.10359,4.59267 1.70698,1.94414 2.86878,3.5348 2.58179,3.5348 -0.28699,0 -1.23361,0.27314 -2.10359,0.60699 -1.0316,0.39586 -1.58179,0.0567 -1.58179,-0.975 0,-1.24929 -0.6835,-1.44753 -3.25,-0.94266 -6.729,1.32372 -8.20446,1.99362 -8.72001,3.95914 -0.46243,1.76303 -1.06693,1.3846 -4.74191,-2.96861 z m 244.712,1.819 c 1.29175,-1.375 2.57363,-2.5 2.84863,-2.5 0.275,0 -0.55688,1.125 -1.84863,2.5 -1.29175,1.375 -2.57363,2.5 -2.84863,2.5 -0.275,0 0.55688,-1.125 1.84863,-2.5 z m -193.788,-9.4602 c -8.91031,-2.40702 -8.49321,-2.15013 -15.1304,-9.31875 -4.562,-4.926 -11.277,-9.721 -13.615,-9.721 -0.33724,0 -0.45365,0.7875 -0.2587,1.75 0.22272,1.09957 -1.12534,2.93385 -3.62701,4.93521 -3.91616,3.13296 -5.5808,3.41502 -5.5808,0.94561 0,-2.28919 -6.24221,-7.80074 -8.24246,-7.27767 -5.35794,1.40114 4.1527,-4.52105 12.5181,-7.7949 l 3.77565,-1.47763 -0.16049,-7.79031 c -0.0883,-4.28467 0.16976,-10.3196 0.57341,-13.4109 0.70917,-5.43114 1.02555,-5.90311 9.38485,-14 l 8.651,-8.379 -8.25,8.52089 c -6.8709,7.0965 -8.25,9.06068 -8.25,11.75 0,1.77601 0.27451,3.22911 0.61002,3.22911 0.33551,0 3.14801,-1.32859 6.25,-2.95243 3.10199,-1.62383 8.56498,-3.6854 12.14,-4.58127 3.575,-0.89586 9.7625,-3.42379 13.75,-5.61762 3.9875,-2.19382 7.25,-3.79827 7.25,-3.56544 0,0.23283 -3.2625,2.58579 -7.25,5.2288 -3.9875,2.643 -11.3378,7.99134 -16.334,11.8852 -8.30097,6.46946 -9.25798,7.57636 -11.1024,12.8413 -2.36327,6.74595 -1.94765,7.43871 5.03729,8.39611 2.55701,0.35047 4.64911,1.0037 4.64911,1.45161 0,3.03441 -9.5366,2.57396 -14.5361,-0.70183 -1.88271,-1.2336 -2.86278,-1.38554 -3.67811,-0.57021 -1.1579,1.1579 -1.01951,1.2358 7.63591,4.29824 3.20546,1.13414 4.3013,2.25081 6,6.114 2.10211,4.78064 3.82981,6.45143 2.86803,2.77357 -0.55639,-2.12764 2.02484,-2.91803 3.21908,-0.98571 1.51949,2.45858 8.58073,4.85608 16.2806,5.52775 8.02478,0.70001 11.415,2.41184 4.96055,2.50473 -3.11932,0.0449 -3.05282,0.12378 1.65404,1.96183 2.69721,1.05328 6.97221,2.21321 9.5,2.57764 6.81879,0.98304 8.53115,2.34676 2.99265,2.38335 -2.53182,0.0167 -7.25682,0.25734 -10.5,0.5347 -4.09455,0.35018 -8.12405,-0.0974 -13.1847,-1.46449 z m 15.538,-7.746 c 1.2375,-0.23836 3.2625,-0.23836 4.5,0 1.2375,0.23835 0.225,0.43337 -2.25,0.43337 -2.475,0 -3.4875,-0.19502 -2.25,-0.43337 z m 136.012,-8.044 c -1.9545,-2.20909 -6.23409,-19.1953 -5.10347,-20.2564 0.463,-0.4345 3.31682,-1.05504 6.34182,-1.37898 l 5.5,-0.58898 -4.13369,1.53172 c -4.08984,1.51548 -4.12499,1.57104 -3.31338,5.23716 0.84931,3.83641 2.73839,17.2054 2.43118,17.2054 -0.0958,0 -0.87088,-0.7875 -1.72246,-1.75 z m 57.3173,-0.66667 c -0.0434,-1.05416 0.19293,-1.64479 0.52522,-1.3125 0.33229,0.3323 0.36781,1.19479 0.0789,1.91667 -0.31922,0.79773 -0.55618,0.56078 -0.60416,-0.60417 z m 16.61,-13.6091 c -0.36389,-1.36082 -0.66776,-3.35814 -0.67527,-4.4385 -0.0126,-1.80873 0.11433,-1.83631 1.60242,-0.34821 1.24885,1.24885 1.40229,2.25742 0.67526,4.4385 l -0.9408,2.82242 z m -7.531,-9.974 c 0,-1.375 0.22698,-1.9375 0.50439,-1.25 0.27741,0.6875 0.27741,1.8125 0,2.5 -0.27741,0.6875 -0.50439,0.125 -0.50439,-1.25 z m 8.29447,-7.5 c 0.17415,-5.5 0.8204,-11.125 1.4361,-12.5 0.91389,-2.04093 1.03003,-1.21459 0.63249,4.5 -0.26783,3.85 -0.91408,9.475 -1.4361,12.5 -0.84646,4.90499 -0.91488,4.41817 -0.63249,-4.5 z m -62.9045,7.08868 c 1.06156,-0.77623 2.3552,-1.14861 2.87476,-0.8275 0.51955,0.3211 1.09245,2.75684 0.029,3.17331 -3.13161,1.22635 -4.97553,-0.83086 -2.90371,-2.34581 z m 50.452,-15.139 c 0,-1.443 2.695,-7.45 3.342,-7.45 0.16006,0 -0.17881,2.025 -0.75304,4.5 -1.006,4.338 -2.589,6.142 -2.589,2.95 z m -64.5,-4.6364 c -3.85,-1.11492 -7.14389,-2.16055 -7.31976,-2.32363 -0.751,-0.69637 3.98528,-8.49284 6.02888,-9.92423 1.23,-0.8614 3.691,-1.5661 5.469,-1.5661 7.233,0 35.341,-15.3547 79.276,-43.3071 12.038,-7.6586 44.416,-25.2195 50.546,-27.4142 1.65,-0.590776 3.86132,-1.42164 4.91404,-1.84636 5.05802,-2.04066 -1.27736,2.67709 -22.6971,16.9018 -22.079,14.6622 -35.204,24.0148 -45.211,32.2146 -2.478,2.0307 -4.506,3.4513 -4.506,3.1568 0,-0.294467 2.19116,-2.28002 4.86924,-4.41234 2.67808,-2.13232 8.63794,-7.37814 13.2441,-11.6574 l 8.37488,-7.78042 -16.9941,10.4127 c -9.34676,5.727 -23.0742,13.8067 -30.5054,17.9549 -7.43121,4.14817 -17.7812,10.2184 -23,13.4895 -5.2188,3.27104 -11.8814,7.23684 -14.8058,8.81289 l -5.31709,2.86554 4.31709,2.25937 c 2.37441,1.24265 5.4421,2.31133 6.8171,2.37484 2.30028,0.10625 2.34022,0.18413 0.5,0.9749 -3.05067,1.31092 -6.33973,1.03227 -14,-1.18606 z m 76,-7.66704 c 1.65,-1.01342 3.16735,-1.409 3.37188,-0.879082 0.48529,1.2573 -1.83896,2.698892 -4.37188,2.711612 -1.63337,0.008 -1.45006,-0.32772 1,-1.832522 z m -226.167,-17.3163 c 10.569,-8.1283 29.158,-19.2121 35.167,-20.969 3.7701,-1.10228 18.8588,-3.49771 27.75,-4.40549 l 6.75,-0.689169 v 5.1165 c 0,3.41277 -0.41623,5.12509 -1.25,5.1423 -6.55837,0.135363 -21.1009,3.78403 -26.7548,5.3367 -8.18243,2.24704 -33.8965,15.7006 -34.8187,15.7642 -0.92212,0.06363 -10.3249,18.350499 -24.0415,16.723799 -3.83142,0.67686 6.82143,-14.040099 17.1975,-22.019699 z m 239.667,-1.3307 c 4.09747,-4.125 7.67494,-7.5 7.94994,-7.5 0.275,0 -2.85247,3.375 -6.94994,7.5 -4.09747,4.125 -7.67494,7.5 -7.94994,7.5 -0.275,0 2.85247,-3.375 6.94994,-7.5 z m -222.515,-1.3078 c 5.5,-2.73029 16.1107,-5.48579 21.116,-7.17901 10.4305,-3.52846 28.6967,-8.01037 30.3888,-5.97147 1.41821,1.70883 -4.16612,9.23582 -8.02811,11.9858 -2.73337,1.94633 -3.25424,2.02365 -4.76509,0.707316 -0.93294,-0.812834 -4.10528,-2.26231 -7.04964,-3.22106 -4.69129,-1.52759 -6.11358,-1.58697 -11.5,-0.48016 -3.38064,0.694661 -10.4216,3.03763 -15.6466,5.20659 -13.4002,5.56258 -16.0046,4.65543 -4.51539,-1.048 z m 241.701,-6.325 -3.686,-5.7376 -3.5,3.1852 -3.5,3.1852 3.5,-3.9368 c 4.15433,-4.67284 7.225,-7.484 8.225,-7.52989 0.39875,-0.0183 0.45559,1.31378 0.12631,2.96018 -0.45954,2.2977 0.0229,3.80844 2.07589,6.5 1.47102,1.9286 2.53918,3.49313 2.37369,3.47671 -0.16549,-0.01641 -3.14023,0.04501 -5.61523,-2.10295 z"
           fill="#5d6d5d"
           id="path10" />
        <path
           d="m 163.028,373.639 c 0.26742,-0.26742 7.31102,-2.52233 15.6524,-5.0109 14.3701,-4.28715 15.997,-5.04413 30.9929,-14.4203 12.7464,-7.96969 16.7681,-10.0013 20.6638,-10.4385 4.56526,-0.5124 4.80485,-0.42282 4.26365,1.59407 -0.31538,1.17534 -0.57957,2.47252 -0.58708,2.88263 -0.008,0.41011 -9.98156,5.73355 -22.1646,11.8299 -16.1237,8.06824 -23.6744,11.3101 -27.75,11.9142 -7.7631,1.15079 -21.6605,2.23836 -21.0711,1.64895 z m -55.1967,-15.6946 c -1.46781,-1.09589 -4.39281,-2.66134 -6.5,-3.47877 l -3.831,-1.486 4,0.57777 c 2.53805,0.3666 5.08943,1.64963 6.98077,3.51045 3.44196,3.38643 3.18195,3.73743 -0.64952,0.87678 z m 248.327,-18.944 c 0,-1.375 0.22698,-1.9375 0.50439,-1.25 0.27741,0.6875 0.27741,1.8125 0,2.5 -0.27741,0.6875 -0.50439,0.125 -0.50439,-1.25 z m -21,-62 c 0,-1.375 0.22698,-1.9375 0.50439,-1.25 0.27741,0.6875 0.27741,1.8125 0,2.5 -0.27741,0.6875 -0.50439,0.125 -0.50439,-1.25 z m -153.158,-3.159 c 7.00407,-2.50891 9.55595,-4.05389 14.5,-8.77871 3.3,-3.15367 7.0125,-6.27365 8.25,-6.93329 1.69042,-0.90106 2.26618,-2.12323 2.31504,-4.91415 0.0771,-4.40196 5.9418,-21.4215 7.55976,-21.9386 0.73216,-0.23398 0.293,3.73474 -1.25805,11.3691 -1.31057,6.4507 -2.15212,12.4555 -1.87011,13.3441 0.28201,0.88854 -0.33779,3.39191 -1.37734,5.56306 -1.03954,2.17115 -2.69884,6.53504 -3.68731,9.69754 l -1.797,5.75 -15.568,-0.057 -15.567,-0.057 8.5,-3.045 z m 152.2,-6.841 c -0.12484,-5.03735 -0.0128,-5.33671 1.33189,-3.55887 0.80751,1.06762 1.46131,2.41762 1.45289,3 -0.008,0.58238 -0.42609,0.40963 -0.92815,-0.38388 -0.66167,-1.04579 -1.02392,-0.35793 -1.31658,2.5 -0.33365,3.2582 -0.42742,2.98783 -0.54005,-1.55725 z m 42.6993,-50.2315 c -0.21958,-3.70232 -0.15352,-7.75232 0.1468,-9 0.49164,-2.0425 0.61618,-2.08601 1.25,-0.43672 0.88833,2.31155 0.74292,10.3749 -0.24648,13.6682 -0.55632,1.85172 -0.85461,0.75445 -1.15032,-4.23149 z m -21.667,-12.768 c 0,-1.925 0.2058,-2.7125 0.45733,-1.75 0.25152,0.9625 0.25152,2.5375 0,3.5 -0.25153,0.9625 -0.45733,0.175 -0.45733,-1.75 z m -2.232,-39.095 c 0,-0.6864 0.71615,-2.03933 1.59145,-3.00652 1.4151,-1.56367 1.4553,-3.01283 0.36273,-13.0787 -1.04828,-9.65789 -1.62174,-11.8342 -3.90519,-14.8202 -3.75716,-4.9132 -5.94881,-5.38924 -4.73669,-5.38924 0.58246,0 2.69077,-0.0483 2.69453,0.63924 0.004,0.6875 1.57876,2.32051 3.5,3.6289 3.45041,2.34978 4.17396,4.42958 3.69503,10.6211 -0.0851,1.1 0.34434,5.23914 0.95429,9.19808 1.08788,7.06095 1.05885,7.2577 -1.52357,10.3267 -1.448,1.722 -2.633,2.568 -2.633,1.881 z m -141.5,-10.018 c 4.95,-2.2365 10.35,-5.28705 12,-6.779 1.65,-1.49195 3.87133,-3.36416 4.93628,-4.16047 1.91427,-1.43137 1.91437,-1.41038 0.009,1.84581 -2.271,3.88025 -5.21651,5.74697 -15.8306,10.0326 -11.1199,4.48984 -11.8214,3.89875 -1.11433,-0.93891 z m 176.124,-16.426 c -0.96498,-2.51469 -0.68031,-3.16355 0.49853,-1.13634 0.58369,1.00375 0.8506,2.03566 0.59313,2.29313 -0.25747,0.25747 -0.74872,-0.26309 -1.09166,-1.15679 z m -2.314,-10.961 c -0.006,-3.3 0.17648,-4.77056 0.40466,-3.26791 0.22817,1.50265 0.23276,4.20265 0.0102,6 -0.22256,1.79735 -0.40925,0.56791 -0.41486,-2.73209 z m 3.19,-10.5 c 0.99549,-1.1 2.03498,-2 2.30998,-2 0.275,0 -0.31449,0.9 -1.30998,2 -0.99549,1.1 -2.03498,2 -2.30998,2 -0.275,0 0.31449,-0.9 1.30998,-2 z m -26.338,-20 c 0.48518,-1.5401 13.0005,-12.6877 21.0237,-18.2632 6.8133,-4.73468 4.80854,0.05299 -3.85892,6.7077 -4.20484,3.22839 -10.6823,6.85546 -13.1502,9.05546 -2.46792,2.2 -4.27448,3.325 -4.01457,2.5 z m -148.162,-1.8823 c 9.82598,-5.3 9.79415,-8.70895 12.6858,-6.11773 -2.18455,-4.60661 0.19228,-2.99776 0.99514,-4.55031 3.64256,-7.04393 9.02711,-4.65669 7.90268,2.84153 l -0.66606,4.44158 -6.25395,0.502007 c -3.43967,0.276103 -7.58361,1.17307 -9.20876,1.99326 -1.62514,0.820189 -4.30481,1.78066 -5.95481,2.13438 -2.97748,0.638304 -2.97373,0.628961 0.5,-1.24472 z m 227,-4.4909 c 0,-0.388578 0.94987,-2.5684 2.11082,-4.84406 2.044,-4.00657 0.22261,-3.42048 -1.48858,-6.39582 l 0.0651,-3.88695 2.60788,2.37882 2.60788,2.37882 -2.57187,5.12118 c -2.729,5.4347 -3.331,6.383 -3.331,5.248 z"
           fill="#939f93"
           id="path11" />
        <path
           d="m 133.453,372.175 c -11.2319,-4.10874 -18.0731,-8.14242 -23.8429,-14.0583 -2.82709,-2.89865 -5.01339,-4.16494 -8,-4.63354 -10.3751,-1.627 -14.1724,-3.635 -29.7227,-15.715 -8.463,-6.574 -15.9498,-12.185 -16.6373,-12.468 -0.6875,-0.28283 -1.25436,-1.02859 -1.25969,-1.65725 -0.0053,-0.62865 -4.01891,-4.62487 -8.91906,-8.88048 l -8.90937,-7.73747 -0.723163,-6.76253 c -0.39774,-3.71939 -1.3682,-7.74799 -2.15657,-8.95243 -1.27159,-1.94269 -1.19292,-2.8458 0.696899,-8 1.89487,-5.16798 2.815,-6.2593 8.32563,-9.87459 3.4074,-2.235 9.1203,-5.223 12.6953,-6.64 l 6.5,-2.57611 17,1.28685 c 16.5471,1.25257 17.6261,1.47614 40.500004,8.39204 14.2926,4.32133 32.8741,10.9247 47.4255,16.8538 l 23.9255,9.74856 13.0745,14.3842 c 10.151,11.1678 15.087,15.7288 22.0745,20.3974 4.95,3.30722 9.21197,6.19628 9.47104,6.42012 0.97656,0.84376 -2.5967,2.26821 -5.7268,2.28293 -2.37604,0.0112 -7.58449,2.72271 -19.2758,10.035 -15.4273,9.64903 -16.6295,10.2036 -32.4952,14.9883 -9.06135,2.73273 -18.1622,5.18195 -20.2242,5.4427 -12.5085,1.5818 -13.5153,1.48553 -23.7964,-2.27537 z m 213.341,-29.794 -3.70611,-1.56028 1.55916,-3.89674 c 1.254,-3.13405 1.3523,-4.82913 0.50226,-8.66055 -0.5813,-2.6201 -1.59066,-9.58032 -2.24302,-15.4672 -0.65236,-5.88684 -1.61757,-10.6118 -2.14492,-10.5 -0.52734,0.11183 -1.54789,-2.04666 -2.26789,-4.79666 -1.31992,-5.04135 -3.53105,-24.2243 -3.44917,-29.9237 l 0.0442,-3.07632 1.90543,3.60523 c 1.96623,3.7203 14.1952,42.1062 18.0212,56.5672 1.72252,6.51057 1.99078,9.2558 1.31923,13.5 -0.743,4.69571 -1.13896,5.35376 -3.33862,5.5484 -1.37261,0.12145 -4.1634,-0.4813 -6.20176,-1.33945 z M 142,271.06 c -22.9039,-7.14601 -29.8841,-10.4964 -32.2636,-15.4864 -0.95337,-1.99924 -2.40907,-3.89427 -3.23489,-4.21116 -3.45462,-1.32567 -0.23193,-18.9649 5.57497,-30.5143 2.599,-5.169 3.924,-9.146 3.924,-11.78 0,-3.16608 1.45856,-6.38166 7.15413,-15.7722 3.93478,-6.48743 7.43479,-13.1163 7.7778,-14.7308 0.63243,-2.97669 1.44171,-3.42411 8.81807,-4.87518 2.50175,-0.49214 3.25,-0.29535 3.25,0.85472 0,1.64525 1.65734,1.44883 10.5,-1.24441 6.09437,-1.85618 11.5042,-4.8607 13.2564,-7.36231 1.08279,-1.5459 1.76995,-1.68751 4.02464,-0.82938 1.4954,0.56914 5.55458,1.69289 9.0204,2.49721 11.6955,2.71421 44.455,-1.5276 57.5087,-7.44642 l 6.65438,-3.01724 2.18497,3.0685 2.18497,3.06851 -3.41726,2.82153 c -5.629,4.648 -17.469,9.9 -22.319,9.9 -2.36255,0 -9.20827,1.0866 -15.2127,2.41467 -8.75317,1.93604 -11.8822,2.23438 -15.7858,1.5051 -6.57346,-1.22805 -21.4921,-1.44098 -22.5426,-0.32174 -0.46564,0.49608 -1.14016,2.29789 -1.49893,4.00401 l -0.65231,3.10203 6.79695,0.61594 c 3.73833,0.33877 11.747,0.9183 17.797,1.28783 14.2621,0.87115 19.1619,3.16094 26.5174,12.3922 7.19432,9.02895 7.41796,9.56276 5.60606,13.381 -0.84171,1.77378 -2.8525,6.1718 -4.46842,9.77338 -1.61592,3.60158 -3.61392,6.80769 -4.44,7.12468 -1.802,0.691 -7.715,17.89 -7.715,22.438 0,2.30929 -0.63252,3.5495 -2.25,4.41168 -1.2375,0.65964 -4.95,3.77885 -8.25,6.93159 -5.0411,4.81614 -7.41113,6.22826 -14.8297,8.83585 -12.8647,4.52188 -17.0426,4.22314 -39.6703,-2.8367 z M 369.831,228 c -6.10717,-0.45787 -10.7487,-1.96373 -6.24758,-2.0269 1.05417,-0.0148 3.43791,-1.28864 5.2972,-2.83078 2.806,-2.32734 3.45963,-3.6399 3.84594,-7.72309 0.41069,-4.34093 0.15505,-5.20909 -2.17457,-7.38491 -2.16573,-2.02276 -3.68301,-2.47185 -8.44635,-2.5 l -5.80637,-0.0343 -1.14959,-5.5602 c -1.91379,-9.25639 -1.04911,-12.7612 2.43498,-9.86961 0.91991,0.76346 3.98642,1.16177 7.95502,1.03329 5.79646,-0.18765 6.70309,0.0553 8.84989,2.37177 2.66119,2.87147 4.03427,9.50528 2.85414,13.7893 -0.41886,1.52049 -0.50482,6.02049 -0.19103,10 0.8757,11.1056 0.72397,11.3312 -7.22168,10.7355 z m -2.03414,-42.1925 c -0.88596,-2.51103 0.73699,-5.7726 5.24276,-10.5361 9.48603,-10.0286 11.8354,-14.8624 14.47,-29.7714 1.02307,-5.78945 0.9995,-7.46698 -0.13628,-9.70034 -0.756,-1.486 -1.374,-5.388 -1.374,-8.674 0,-4.91218 0.44399,-6.50059 2.5,-8.94402 1.375,-1.6341 2.5,-3.46862 2.5,-4.07673 0,-0.6081 0.39112,-1.10564 0.86916,-1.10564 0.47803,0 1.11884,-1.53865 1.42402,-3.41923 0.8876,-5.46962 3.4451,-8.57837 7.07183,-8.59608 4.44833,-0.0217 5.28028,-0.886 5.84989,-6.0772 0.46277,-4.21744 1.18917,-5.24529 8.89451,-12.5856 4.61482,-4.39618 10.253,-9.64914 12.5292,-11.6732 l 4.13863,-3.68017 7.42571,5.36954 c 3.636,3.5135 5.797,7.9117 5.797,8.5302 0,0.618429 -2.6578,6.86365 -5.90623,13.8783 -3.24843,7.01462 -9.84838,21.3039 -14.6666,31.7539 -4.81817,10.45 -10.1479,20.585 -11.8438,22.5222 -1.69591,1.9372 -7.31896,10.5545 -12.4957,19.1496 l -9.41223,15.6274 -4.79092,0.94728 c -2.91488,0.57635 -5.15105,0.58717 -5.71058,0.0276 -0.80901,-0.80901 -6.09563,0.10742 -10.6076,1.83881 -0.71963,0.27614 -1.51601,-0.0863 -1.76973,-0.80539 z m -28.0765,-23.6337 c -8.37881,-8.52822 -9.72536,-10.3615 -9.75705,-13.2837 -0.0202,-1.86455 -0.6223,-6.41491 -1.33797,-10.1119 l -1.30123,-6.72183 7.59139,-2.52817 c 4.176,-1.39 8.323,-2.528 9.217,-2.528 0.89374,0 3.4119,2.3625 5.59591,5.25 3.79404,5.01613 4.02627,5.75428 5.21306,16.5702 1.10568,10.0768 1.06731,11.5134 -0.34932,13.0787 -0.8753,0.96719 -1.60146,2.6231 -1.61369,3.67979 -0.0122,1.05669 -0.8131,2.94892 -1.77971,4.20495 l -1.75748,2.28369 -9.72028,-9.89361 z m -158.22,-3.71 c -8.37698,-0.97525 -14.5215,-3.07128 -15.9956,-5.45646 -1.19091,-1.92692 -3.76989,-1.13037 -3.21465,0.99289 0.96178,3.67786 -0.76592,2.00707 -2.86803,-2.77357 -1.6987,-3.86319 -2.79454,-4.97986 -6,-6.114 -8.65542,-3.06244 -8.79381,-3.14034 -7.63591,-4.29824 0.81533,-0.81533 1.7954,-0.66339 3.67811,0.57021 1.41164,0.92494 4.53033,2.04857 6.93043,2.49696 3.69589,0.69047 4.95631,0.4566 8.23474,-1.52793 3.82165,-2.31337 7.37091,-3.07757 7.37091,-1.58706 0,0.4215 2.43282,2.2215 5.40627,4 6.24664,3.73627 11.2105,4.13492 22.2784,1.78914 16.5366,-3.50485 25.5598,-8.76806 33.5975,-19.5972 3.14485,-4.23706 5.71791,-8.21101 5.71791,-8.831 0,-2.18629 6.54408,-0.75776 7.45973,1.6284 1.14354,2.98 -9.78622,17.1508 -19.7428,25.5972 -13.4787,11.4343 -26.6965,15.2668 -45.217,13.1107 z m -46.9306,-1.13256 c -1.67476,-0.9053 -5.10301,-1.54409 -8,-1.49066 l -5.06937,0.0935 4.21128,-3.96693 c 2.3162,-2.18181 4.8503,-3.96693 5.63134,-3.96693 1.76894,0 7.65738,5.9134 7.65738,7.68984 v 2.06016 c 0,1.33522 -1.43677,1.19935 -4.43063,-0.41899 z m 14.431,-41.603 c 0,-2.76871 1.26916,-4.53422 8.25,-11.4765 9.21282,-9.16192 18.5988,-14.7737 38.75,-23.1681 15.9239,-6.63349 22.1976,-7.8323 29.1466,-5.56953 2.94436,0.95875 6.14786,2.43643 7.1189,3.28374 1.68451,1.46987 1.67877,1.63604 -0.12504,3.62152 -1.0398,1.14453 -2.38492,3.04171 -2.98914,4.21594 -0.60422,1.17423 -2.34795,2.43912 -3.87496,2.81087 -1.52701,0.371743 -4.35138,1.6917 -6.27638,2.93324 -5.5153,3.55712 -15.949,7.30226 -22.5,8.0763 -4.24952,0.50211 -8.33397,1.97202 -14,5.03834 -4.4,2.38118 -10.925,5.06562 -14.5,5.96542 -3.575,0.8998 -9.03799,2.9646 -12.14,4.58843 -3.102,1.623 -5.914,2.952 -6.25,2.952 -0.335,0 -0.61,-1.472 -0.61,-3.272 z m 184.183,-11.0777 -4.31709,-2.25937 5.31709,-2.86554 c 2.92441,-1.57605 9.58702,-5.54185 14.8058,-8.81289 5.21879,-3.27104 15.5688,-9.34131 23,-13.4895 7.4312,-4.14817 21.1586,-12.2279 30.5054,-17.9549 l 16.9941,-10.4127 -7.99412,7.39806 c -10.5199,9.73555 -19.9499,17.5726 -25.4414,21.1439 -7.98198,5.19086 -19.4478,14.6216 -24.5527,20.1948 -4.45401,4.86261 -5.79031,5.67432 -12.2373,7.43329 -9.04553,2.46794 -10.7221,2.42882 -16.0798,-0.37514 z"
           fill="#adc2ad"
           id="path12" />
        <path
           fill="#424a43"
           d="m 125.63,172.136 c -2.40767,-2.51307 -2.70643,-3.52145 -2.43709,-8.2257 0.40259,-7.03169 2.38475,-8.21872 10.3404,-6.19248 l 5.52383,1.40687 4.75024,-3.81226 c 3.0669,-2.46131 4.62542,-4.43239 4.39802,-5.56225 -0.19371,-0.9625 -0.0763,-1.75 0.26095,-1.75 2.39701,0 9.12017,4.86637 13.9897,10.1261 l 5.79316,6.2573 -3.53641,3.24087 c -2.17919,1.99708 -6.1314,4.04239 -10.298,5.32933 l -6.76164,2.08846 -2.81514,-2.69708 c -1.54832,-1.48339 -3.07921,-3.52908 -3.40195,-4.54597 -0.51108,-1.61027 -1.23637,-1.26489 -5.61966,2.67607 -2.76807,2.48873 -5.57499,4.52496 -6.2376,4.52496 -0.66262,0 -2.43959,-1.28888 -3.94882,-2.86418 z"
           id="path13" />
        <path
           d="m 177.5,144.841 c -2.75,-1.7167 -5.225,-3.44067 -5.5,-3.83106 -0.275,-0.39038 -1.10724,-0.90467 -1.84942,-1.14286 -0.74218,-0.2382 3.53282,-3.40176 9.5,-7.03015 10.6539,-6.47817 13.4006,-7.7667 17.699,-8.30287 1.18275,-0.14754 5.07545,-1.41518 8.65045,-2.81698 5.91062,-2.31762 31.6134,-6.43669 32.7946,-5.25557 0.23188,0.23188 0.28138,2.95311 -1.64946,3.75988 -1.93085,0.80676 -5.19535,3.19562 -7.95822,5.30858 -4.08579,3.12469 -4.12271,2.12371 -6.47105,7.8108 -2.74585,6.64978 -6.58124,8.23256 -11.2243,9.95647 -6.95022,2.58057 -17.754,4.70621 -23.807,4.68403 -4.04998,-0.0148 -6.27886,-0.70208 -10.1846,-3.14027 z"
           fill="#c28e8e"
           id="path14" />
        <path
           fill="#f7f4f4"
           d="m 184.853,146.33 c -0.90606,-0.24066 -1.86751,-1.20096 -2.13655,-2.134 -0.26905,-0.93304 -0.79497,-2.436 -1.16873,-3.3399 -0.9256,-2.23848 12.3087,-9.57664 17.9805,-9.96988 4.86455,-0.33727 6.08617,0.31398 6.70995,3.5771 0.34793,1.82005 -0.13941,2.89696 -1.80475,3.98814 -1.25476,0.82215 -2.56275,2.38134 -2.90665,3.46487 -0.95776,3.01761 -11.4617,5.79806 -16.6738,4.41367 z"
           id="path15" />
        <path
           fill="#965555"
           d="m 217,140.609 c 0,-0.32322 1.15543,-3.40491 2.56761,-6.8482 2.02247,-4.93131 3.63553,-7.07618 7.59745,-10.1023 5.881,-4.492 11.835,-7.281 11.835,-5.544 0,1.79557 -11.2764,16.6318 -13.5,17.7618 -1.1,0.55902 -3.4625,1.98488 -5.25,3.16857 -1.7875,1.18369 -3.25,1.88771 -3.25,1.56448 z"
           id="path16" />
        <path
           d="m 376.718,297.762 c -8.91511,-4.8042 -19.1416,-13.4908 -25.4568,-21.6235 l -4.34923,-5.60095 -6.05447,-12.7581 c 0.0292,-5.78527 -4.49269,-14.5552 -5.32097,-19.7375 -1.38511,-8.66637 3.72086,-10.0736 5.29322,-15.2036 2.03636,-6.64389 13.9012,-13.2002 18.3732,-14.7591 4.95196,-1.72626 10.2513,-1.33922 12.2746,0.89649 2.14275,2.36771 1.66662,10.3086 -0.76383,12.7391 -1.34459,1.34459 -1.58124,1.27908 -2.17861,-0.60306 -0.87684,-2.76268 -1.91675,-2.66477 -6.35211,0.59804 -2.0258,1.49025 -3.80357,2.77304 -3.95059,2.85064 -1.19379,0.6301 -1.61536,12.6103 -0.5697,16.1901 3.93927,13.486 18.1472,30.4073 31.1016,37.0415 6.84819,3.50707 12.8856,4.34515 11.8494,1.64486 -0.32996,-0.85984 0.0719,-2.86249 0.89301,-4.45034 1.92248,-3.71767 -1.01662,-7.04222 -3.17199,-16.3003 -1.72119,-7.39305 0.72455,-9.08669 2.84869,-11.3787 1.17612,-1.26905 2.78736,-2.30736 3.08289,-2.30736 0.29553,0 2.22395,5.21774 4.28537,11.595 3.92926,12.1556 4.61825,19.1029 2.98147,30.063 -1.05778,7.08307 -7.15492,13.2695 -14.2236,14.4319 -9.49023,1.56058 -12.3893,1.09202 -20.5916,-3.32806 z"
           fill="#616155"
           id="path17" />
        <path
           d="m 398.19,275.44 c -0.72047,-0.81617 -1.72367,-1.22824 -2.22933,-0.91572 -0.50566,0.31251 -1.73982,0.12912 -2.74258,-0.40754 -2.3458,-1.25543 -4.48879,-12.676 -2.9908,-15.3527 0.85295,-1.52415 -0.77037,0.77868 3.31634,-4.90114 6.4573,-5.67438 5.69483,-5.82152 7.78602,3.90996 1.96882,9.16204 2.09243,13.2066 0.50978,16.6801 -1.32832,2.91536 -1.82792,3.05048 -3.64943,0.98705 z m -56.1425,-13.3454 c -4.08857,-8.13177 -7.04826,-19.0141 -7.04678,-25.91 0.002,-8.3737 8.13579,-19.863 18.1376,-25.6193 l 3.76877,-1.52754 -4.94438,5.02754 c -2.78999,3.34188 -5.19553,7.58255 -6.24674,11.0123 -1.57305,5.13226 -1.58904,6.32981 -0.20023,15 1.33519,8.33546 2.01686,28.7231 0.99455,29.7454 -0.2112,0.2112 -2.21946,-3.26656 -4.4628,-7.72834 z"
           fill="#a9a98a"
           id="path18" />
        <path
           fill="#e5e5dc"
           d="m 393.864,264.984 c -0.89984,-0.52554 -1.94318,-2.59254 -2.31853,-4.59334 -0.58402,-3.11311 -0.28499,-4.05269 2.07316,-6.51407 1.51559,-1.58194 3.06735,-2.87625 3.44834,-2.87625 0.81946,0 1.8413,11.9368 1.17705,13.75 -0.54037,1.47503 -2.11105,1.55882 -4.38002,0.23366 z"
           id="path19" />
        <path
           fill="#ffffff"
           d="m 260.205,337.168 -3.29548,-2.69077 3.16912,-6.98863 c 7.4517,-16.4327 11.8272,-36.7885 11.8902,-55.3156 0.0174,-5.12981 -0.68641,-17.2612 -1.56408,-26.9587 -1.96,-21.645 -1.37,-25.214 4.167,-25.214 3.65528,0 5.84652,2.50557 3.47372,3.97203 -0.96792,0.59821 -0.64773,3.42255 1.43405,12.6491 4.20329,18.6292 5.72397,34.8389 4.44475,47.3789 -1.18914,11.6569 -9.38097,40.368 -12.4527,43.6447 -0.95654,1.02039 -3.14141,4.18599 -4.85526,7.03466 l -3.1161,5.17941 -3.29549,-2.69077 z"
           id="path20" />
        <path
           fill="#797975"
           d="m 306.15,359.259 c -10.1177,-1.27703 -10.6794,-1.48776 -25,-9.37909 -8.05738,-4.44 -15.2464,-8.64199 -15.9757,-9.33777 -1.09433,-1.0441 -0.76144,-2.20619 1.9059,-6.65344 1.7775,-2.96361 3.85357,-5.90036 4.6135,-6.52611 2.63862,-2.17274 11.0827,-32.1106 12.2306,-43.3623 1.28089,-12.5564 -0.24214,-28.7525 -4.46304,-47.4604 -1.85827,-8.23628 -2.35017,-12.0765 -1.57976,-12.3333 0.61531,-0.2051 1.11875,-1.01042 1.11875,-1.78958 0,-1.78553 -0.0255,-1.78777 5.16709,0.45368 16.3412,7.05388 34.214,30.8345 42.318,56.3059 5.23956,16.4685 7.49156,32.6581 7.50436,53.9488 0.0148,24.585 0.56114,23.0928 -9.32779,25.4744 -7.51801,1.81061 -8.97782,1.86259 -18.5118,0.65923 z"
           id="path21" />
      </g>
    </g>
  </g>
</svg>
